<?xml version="1.0" standalone="no"?>
<!DOCTYPE svg PUBLIC "-//W3C//DTD SVG 1.1//EN" "http://www.w3.org/Graphics/SVG/1.1/DTD/svg11.dtd" >
<!--
2018-5-24: Created.
-->
<svg xmlns="http://www.w3.org/2000/svg">
<metadata>
Created by FontForge 20120731 at Thu May 24 03:33:43 2018
 By icons8

</metadata>
<defs>
<font id="font_icons8" horiz-adv-x="512" >
  <font-face 
    font-family="font_icons8"
    font-weight="500"
    font-stretch="normal"
    units-per-em="512"
    panose-1="2 0 6 3 0 0 0 0 0 0"
    ascent="448"
    descent="-64"
    bbox="-0.00133896 -64 512 448.077"
    underline-thickness="25.6"
    underline-position="-51.2"
    unicode-range="U+0020-F12E"
  />
    <missing-glyph />
    <glyph glyph-name="space" unicode=" " horiz-adv-x="200" 
 />
    <glyph glyph-name="purchase-order" unicode="&#xf122;" 
d="M144 368h288v-288c0 -35.1875 -28.8125 -64 -64 -64h-224c-35.1875 0 -64 28.8125 -64 64v48h256v-48c0 -17.875 14.125 -32 32 -32s32 14.125 32 32v256h-224v-192h-32v224zM208 272h32v-32h-32v32zM272 272h96v-32h-96v32zM208 208h32v-32h-32v32zM272 208h96v-32h-96
v32zM112 96v-16c0 -17.875 14.125 -32 32 -32h169c-5.5625 9.5 -9 20.25 -9 32v16h-192z" />
    <glyph glyph-name="check-file" unicode="&#xf112;" 
d="M96 400h214.5l5 -4.5l96 -96l4.5 -5v-107c55 -14.375 96 -64.125 96 -123.5c0 -70.5 -57.5 -128 -128 -128c-40.3125 0 -76 18.75 -99.5 48h-188.5v416zM128 368v-352h137.5c-6.125 14.875 -9.5 30.9375 -9.5 48c0 70.5 57.5 128 128 128v80h-96v96h-160zM320 345v-41h41
zM384 160c-53.1875 0 -96 -42.8125 -96 -96s42.8125 -96 96 -96s96 42.8125 96 96s-42.8125 96 -96 96zM436.5 107.5l23 -23l-64 -64l-11.5 -11l-11.5 11l-48 48l23 23l36.5 -36.5z" />
    <glyph glyph-name="microsoft-excel" unicode="&#xf11a;" 
d="M295.68 448c2.91992 0.360352 5.87988 -0.55957 8.08008 -2.51953c2.2002 -1.96094 3.48047 -4.76074 3.44043 -7.7207v-51.2002h174.08c11.2002 0 20.4795 -9.2793 20.4795 -20.4795v-348.16c0 -11.2002 -9.2793 -20.4795 -20.4795 -20.4795h-174.08v-51.2002
c-0.0400391 -3.04004 -1.44043 -5.87988 -3.75977 -7.7998c-2.36035 -1.9209 -5.44043 -2.68066 -8.40039 -2.12012l-286.72 54.3994c-4.87988 0.919922 -8.40039 5.24023 -8.32031 10.2402v382.08c-0.0800781 5 3.44043 9.32031 8.32031 10.2402l286.72 54.3994
c0.200195 0.120117 0.44043 0.240234 0.639648 0.320312zM286.72 425.6l-266.239 -50.8799v-365.439l266.239 -50.8799v47.04c-0.279297 1.35938 -0.279297 2.7998 0 4.15918v362.561c-1.35938 2.83984 -1.35938 6.12012 0 8.95996v44.4795zM307.2 366.08v-51.2002h40.96
v-20.4795h-40.96v-51.2002h40.96v-20.4805h-40.96v-51.2002h40.96v-20.4795h-40.96v-61.4404h40.96v-20.4795h-40.96v-51.2002h174.08v348.16h-174.08zM368.64 314.88h81.9199v-20.4795h-81.9199v20.4795zM68.4805 287.36h52.4795l27.5205 -57.2803
c2.15918 -4.52051 4.0791 -10.0801 5.75977 -16.3203h0.319336c1.08008 3.7207 3.16016 9.56055 6.08008 16.96l30.4004 56.6406h48l-57.2803 -94.7207l58.8799 -96.6396h-50.8799l-33.2793 62.4004c-1.24023 2.31934 -2.52051 6.55957 -3.84082 12.7998h-0.319336
c-0.640625 -2.91992 -2.16016 -7.48047 -4.48047 -13.4404l-33.2803 -61.7598h-51.1992l61.1201 95.6797zM368.64 243.2h81.9199v-20.4805h-81.9199v20.4805zM368.64 171.52h81.9199v-20.4795h-81.9199v20.4795zM368.64 89.5996h81.9199v-20.4795h-81.9199v20.4795z" />
    <glyph glyph-name="sort-left" unicode="&#xf129;" 
d="M320 341.333v-298.666l-192 149.333z" />
    <glyph glyph-name="money" unicode="&#xf109;" 
d="M0 384h512v-298.667h-512v298.667zM109.333 352l-19 -16.375c1.2998 -7.37109 -2.78516 -18.4932 -9.11719 -24.8262c-0.00195312 -0.00195312 -0.00585938 -0.00488281 -0.0078125 -0.00683594c-7.78516 -7.77344 -20.7207 -11.3203 -28.875 -7.91699l-20.333 -17.542
v-101.333l20.333 -17.5c8.1582 3.3877 21.0898 -0.172852 28.8652 -7.94824l0.00976562 -0.00976562c6.31152 -6.3291 10.3809 -17.4355 9.08398 -24.792l19.041 -16.417h293.334l19 16.375c-1.2998 7.37109 2.78516 18.4932 9.11719 24.8262l0.0078125 0.0078125
c7.78516 7.77246 20.7207 11.3193 28.875 7.91602l20.333 17.542v101.333l-20.333 17.5c-8.16211 -3.40625 -21.1074 0.149414 -28.8945 7.93652c-0.00585938 0.00585938 -0.0166016 0.015625 -0.0224609 0.0224609c-6.32617 6.34082 -10.3955 17.4658 -9.08301 24.833
l-19 16.375h-293.334zM256 306.667c42.6885 0 77.333 -32.2568 77.333 -72c0 -39.7441 -34.6445 -72 -77.333 -72s-77.333 32.2559 -77.333 72c0 39.7432 34.6445 72 77.333 72zM117.333 264c17.6641 0 32 -13.1416 32 -29.333c0 -16.1924 -14.3359 -29.334 -32 -29.334
s-32 13.1416 -32 29.334c0 16.1914 14.3359 29.333 32 29.333zM394.667 264c17.6641 0 32 -13.1416 32 -29.333c0 -16.1924 -14.3359 -29.334 -32 -29.334s-32 13.1416 -32 29.334c0 16.1914 14.3359 29.333 32 29.333zM0 64h32v-11.75
c131.483 -1.38574 267.002 -17.1865 344.208 -27.708l19.25 12.333c-2.31445 8.23926 0.751953 18.6426 8.66699 26.542c0.149414 0.149414 0.371094 0.204102 0.541992 0.375h32.666v0.208008h21.334h10.666v-85.542l-18.625 3.08398s-239.537 39.791 -434.708 39.791h-16
v42.667z" />
    <glyph glyph-name="twitter" unicode="&#xf12c;" 
d="M509.154 338.23c-18.5391 -8.23047 -38.4619 -13.7686 -59.3848 -16.3076c21.3076 12.8467 37.7686 33.0771 45.4609 57.2314c-20 -11.8467 -42.1533 -20.4619 -65.6924 -25.0771c-18.8457 20.0771 -45.6924 32.6152 -75.4609 32.6152
c-57.0771 0 -103.385 -46.3076 -103.385 -103.385c0 -8.07715 0.922852 -16 2.69238 -23.5381c-85.9229 4.30762 -162.077 45.5381 -213.077 108.076c-8.92285 -15.3076 -14 -33.0762 -14 -52.0762c0 -35.8467 18.2305 -67.4619 46 -86
c-17 0.538086 -32.9229 5.15332 -46.8457 12.9229v-1.30762c0 -50.0771 35.6152 -91.8467 82.9229 -101.385c-8.69238 -2.38477 -17.7695 -3.61523 -27.2305 -3.61523c-6.69238 0 -13.1543 0.615234 -19.4619 1.8457c13.1533 -41 51.3076 -71 96.5381 -71.7686
c-35.3076 -27.7695 -79.9229 -44.2314 -128.385 -44.2314c-8.38379 0 -16.5381 0.461914 -24.6152 1.38477c45.6924 -29.3076 100.077 -46.3848 158.462 -46.3848c190.153 0 294.153 157.539 294.153 294.077c0 4.53809 -0.0761719 9 -0.307617 13.4619
c20.2314 14.4609 37.7695 32.6924 51.6162 53.4609z" />
    <glyph glyph-name="request-money" unicode="&#xf10e;" 
d="M48 384h416v-240h-416v240zM112 352c0 -17.6875 -14.3125 -32 -32 -32v-112c17.6875 0 32 -14.3125 32 -32h288c0 17.6875 14.3125 32 32 32v112c-17.6875 0 -32 14.3125 -32 32h-288zM256 336c35.375 0 64 -32.25 64 -72s-28.625 -72 -64 -72s-64 32.25 -64 72
s28.625 72 64 72zM256 304c-17.625 0 -32 -17.9375 -32 -40s14.375 -40 32 -40s32 17.9375 32 40s-14.375 40 -32 40zM136 288c13.25 0 24 -10.75 24 -24s-10.75 -24 -24 -24s-24 10.75 -24 24s10.75 24 24 24zM376 288c13.25 0 24 -10.75 24 -24s-10.75 -24 -24 -24
s-24 10.75 -24 24s10.75 24 24 24zM240 112h32v-48h64l-80 -80l-80 80h64v48z" />
    <glyph glyph-name="green-check-mark" unicode="&#xf11e;" 
d="M411.333 335.333l30.667 -30.666l-234.667 -234.667l-15.333 -14.667l-15.333 14.667l-106.667 106.667l30.667 30.666l91.333 -91.333z" />
    <glyph glyph-name="books" unicode="&#xf108;" 
d="M128 384h192v-64h112v-320h-192c-26.3125 0 -48 21.6875 -48 48v16h-64c-26.3125 0 -48 21.6875 -48 48v224c0 26.3125 21.6875 48 48 48zM128 352c-9.0625 0 -16 -6.9375 -16 -16v-179c5.0625 1.8125 10.375 3 16 3h64v112h-48v32h60.5c8.8125 9.75 21.4375 16 35.5 16
h48v32h-160zM240 288c-9.0625 0 -16 -6.9375 -16 -16v-179c5.0625 1.8125 10.375 3 16 3h160v192h-160zM256 240h112v-32h-112v32zM128 128c-9.0625 0 -16 -6.9375 -16 -16s6.9375 -16 16 -16h64v32h-64zM240 64c-9.0625 0 -16 -6.9375 -16 -16s6.9375 -16 16 -16h160v32
h-160z" />
    <glyph glyph-name="file" unicode="&#xf111;" 
d="M80 400h214.5l5 -4.5l96 -96l4.5 -5v-310.5h-320v416zM112 368v-352h256v256h-96v96h-160zM304 345v-41h41z" />
    <glyph glyph-name="calendar" unicode="&#xf125;" 
d="M144 384h32v-16h160v16h32v-16h64v-352h-352v352h64v16zM112 336v-32h288v32h-32v-16h-32v16h-160v-16h-32v16h-32zM112 272v-224h288v224h-288zM208 240h32v-32h-32v32zM272 240h32v-32h-32v32zM336 240h32v-32h-32v32zM144 176h32v-32h-32v32zM208 176h32v-32h-32v32z
M272 176h32v-32h-32v32zM336 176h32v-32h-32v32zM144 112h32v-32h-32v32zM208 112h32v-32h-32v32zM272 112h32v-32h-32v32z" />
    <glyph glyph-name="membership-card" unicode="&#xf121;" 
d="M80 352h352c26.3125 0 48 -21.6875 48 -48v-224c0 -26.3125 -21.6875 -48 -48 -48h-352c-26.3125 0 -48 21.6875 -48 48v224c0 26.3125 21.6875 48 48 48zM80 320c-9.0625 0 -16 -6.9375 -16 -16v-224c0 -9.0625 6.9375 -16 16 -16h352c9.0625 0 16 6.9375 16 16v224
c0 9.0625 -6.9375 16 -16 16h-352zM192 288l29.3125 -64l71.625 -9.3125l-52.9375 -48.25l16 -70.4375l-64 36l-64 -36l16 70.4375l-52.9375 48.25l71.625 9.3125zM192 211.188l-0.25 -0.5l-7.375 -16.125l-17.5625 -2.3125l-3.1875 -0.4375l1.9375 -1.6875l13.75 -12.5625
l-4.0625 -18.1875l-0.0625 -0.125l1.125 0.625l15.6875 8.8125l15.6875 -8.8125l1.125 -0.625l-0.0625 0.125l-4.125 18.1875l13.8125 12.5625l1.875 1.6875l-3.125 0.4375l-17.625 2.3125l-7.3125 16.125zM288 128h32v-32h-32v32zM336 128h32v-32h-32v32zM384 128h32v-32
h-32v32z" />
    <glyph glyph-name="receive-cash" unicode="&#xf105;" 
d="M272 384c30.0625 0 55.25 -20.9375 62 -49c37.3125 -6.6875 66 -39.8125 66 -79c0 -44 -36 -80 -80 -80s-80 36 -80 80c0 2.9375 0.1875 5.6875 0.5 8.5c-19.25 11.0625 -32.5 31.8125 -32.5 55.5c0 35.1875 28.8125 64 64 64zM272 352c-17.875 0 -32 -14.125 -32 -32
c0 -9.75 4.625 -17.75 11.5 -23.5c10.8125 18.125 28.5625 31.8125 49.5 37c-5.0625 10.9375 -16 18.5 -29 18.5zM320 304c-26.6875 0 -48 -21.3125 -48 -48s21.3125 -48 48 -48s48 21.3125 48 48s-21.3125 48 -48 48zM183.5 192c26.25 0 54.1875 -11.875 78 -24
c11.875 -6.0625 22.6875 -12.5 31 -18c1.625 -1.0625 2.625 -2 4 -3v0.5l4.5 -3.5c0.5 -0.375 1 -1.125 1.5 -1.5c0.125 -0.0625 0.4375 0.0625 0.5 0l87.5 14.5c23.8125 3.9375 47.375 -10.125 55 -33c8 -23.9375 -3.875 -50.8125 -27 -61
c-24.375 -10.75 -62.5625 -26.0625 -97 -39c-17.25 -6.5 -33.375 -12.25 -46.5 -16.5c-6.5625 -2.125 -12.5625 -3.6875 -17.5 -5s-8.0625 -2.5 -13.5 -2.5c-11.375 0 -19.375 4.5625 -28.5 9.5s-18.5625 11 -28 17s-18.875 11.9375 -26.5 16s-14.4375 5.5 -14 5.5
c-17.4375 0 -37 -7.5 -37 -7.5l-12.5 29.5s23.3125 10 49.5 10c11.3125 0 19.6875 -4.5625 29 -9.5s19.0625 -11 28.5 -17s18.9375 -11.9375 26.5 -16s14 -5.5 13 -5.5c-1.625 0 1.5625 0.5 5.5 1.5s9.3125 2.5 15.5 4.5c12.375 4 28.5625 9.625 45.5 16
c33.875 12.75 71.5625 28.1875 95 38.5c8.3125 3.625 12.375 12.375 9.5 21c-2.6875 8.125 -10.5 13.4375 -19 12l-77 -13c1.25 -10.3125 -0.625 -20.9375 -7 -30c-11.3125 -16.0625 -32 -22.5 -50.5 -16l-1 0.5h-0.5l-71 34l13.5 29l69.5 -33.5h0.5
c5 -1.5 10.4375 0.1875 13.5 4.5c2.375 3.4375 2.75 7.4375 1.5 11l-2.5 3.5c-0.375 0.375 -1.0625 1.25 -2 2c-1.9375 1.5 -4.9375 3.625 -8.5 6c-7.125 4.75 -16.75 10.5 -27.5 16c-21.5625 11 -48 20.5 -63.5 20.5c-38.25 0 -107 -26 -107 -26l-12 30s67.875 28 119 28z
" />
    <glyph glyph-name="gender-neutral-user" unicode="&#xf107;" 
d="M240 368c61.6875 0 112 -50.3125 112 -112c0 -38.5625 -19.6875 -72.8125 -49.5 -93c57.0625 -24.5 97.5 -81.125 97.5 -147h-32c0 70.875 -57.125 128 -128 128s-128 -57.125 -128 -128h-32c0 65.875 40.4375 122.5 97.5 147c-29.8125 20.1875 -49.5 54.4375 -49.5 93
c0 61.6875 50.3125 112 112 112zM240 336c-44.375 0 -80 -35.625 -80 -80s35.625 -80 80 -80s80 35.625 80 80s-35.625 80 -80 80z" />
    <glyph glyph-name="payment-history" unicode="&#xf123;" 
d="M20 320h416v-112h-32v49.4375c-2.5625 -0.9375 -5.25 -1.4375 -8 -1.4375c-13.25 0 -24 10.75 -24 24c0 2.75 0.5 5.4375 1.4375 8h-290.812c0.875 -2.5625 1.375 -5.25 1.375 -8c0 -13.25 -10.75 -24 -24 -24c-2.75 0 -5.4375 0.5 -8 1.4375v-130.875
c2.5625 0.9375 5.25 1.4375 8 1.4375c13.25 0 24 -10.75 24 -24c0 -2.75 -0.5 -5.4375 -1.375 -8h231.125c4.1875 -11.75 10.375 -22.6875 18.75 -32h-312.5v256zM228 256c30.3125 0 54.875 -20.125 61.8125 -48h-13.8125v-58.375
c-11.625 -13.25 -28.5625 -21.625 -48 -21.625c-29.6875 0 -53.5625 20.625 -60.75 48h-3.25v16c0 35.375 28.625 64 64 64zM228 224c-19.0625 0 -32 -12.9375 -32 -32s12.9375 -32 32 -32c18.25 0 32 13.75 32 32s-13.75 32 -32 32zM116 216c13.25 0 24 -10.75 24 -24
s-10.75 -24 -24 -24s-24 10.75 -24 24s10.75 24 24 24zM308 192h192v-32h-16v-32c0 -25.625 -12.8125 -49.625 -32 -64c19.1875 -14.375 32 -38.375 32 -64v-32h16v-32h-192v32h16v32c0 25.625 12.8125 49.625 32 64c-19.1875 14.375 -32 38.375 -32 64v32h-16v32zM356 160
v-32c0 -27.1875 20.8125 -48 48 -48s48 20.8125 48 48v32h-96zM372 128h64s0 -32 -32 -32s-32 32 -32 32zM404 48c-27.1875 0 -48 -20.8125 -48 -48v-32h16c0 17.625 14.375 32 32 32s32 -14.375 32 -32h16v32c0 27.1875 -20.8125 48 -48 48z" />
    <glyph glyph-name="notification" unicode="&#xf117;" 
d="M240 400c17.6875 0 32 -14.3125 32 -32c0 -1.375 -0.3125 -2.6875 -0.5 -4c56.3125 -14.75 96.5 -68.375 96.5 -128.5v-139.5c0 -9.0625 6.9375 -16 16 -16h16v-32h-115c1.8125 -5.0625 3 -10.375 3 -16c0 -26.3125 -21.6875 -48 -48 -48s-48 21.6875 -48 48
c0 5.625 1.1875 10.9375 3 16h-115v32h16c9.0625 0 16 6.9375 16 16v144c0 59.625 41.1875 109.875 96.5 124c-0.1875 1.3125 -0.5 2.625 -0.5 4c0 17.6875 14.3125 32 32 32zM233 336c-49.875 -3.625 -89 -45.1875 -89 -96v-144c0 -5.625 -1.1875 -10.9375 -3 -16h198
c-1.8125 5.0625 -3 10.375 -3 16v139.5c0 53.125 -40.75 98.9375 -93 100.5h-3c-2.375 0 -4.6875 0.1875 -7 0zM240 48c-9 0 -16 -7 -16 -16s7 -16 16 -16s16 7 16 16s-7 16 -16 16z" />
    <glyph glyph-name="expired" unicode="&#xf10d;" 
d="M192 384c66.1875 0 120.25 -51.3125 127.5 -116.5l126.5 -227.5l13 -24h-342l13 24l49 88.5c-64.6875 6.5625 -115 61.0625 -115 127.5c0 70.875 57.125 128 128 128zM192 352c-53.9375 0 -96 -42.0625 -96 -96s42.0625 -96 96 -96c2.5 0 3.375 0.3125 5 0.5l77 138.5
l1.5 3c-16.5 30 -47.375 50 -83.5 50zM176 320h32v-86.5l-4.5 -5l-32 -32l-23 23l27.5 27.5v73zM288 258.5l-116.5 -210.5h233zM272 192h32v-80h-32v80zM272 96h32v-32h-32v32z" />
    <glyph glyph-name="add" unicode="&#xf115;" 
d="M256 400c114.688 0 208 -93.3125 208 -208s-93.3125 -208 -208 -208s-208 93.3125 -208 208s93.3125 208 208 208zM256 368c-97.375 0 -176 -78.625 -176 -176s78.625 -176 176 -176s176 78.625 176 176s-78.625 176 -176 176zM240 288h32v-80h80v-32h-80v-80h-32v80h-80
v32h80v80z" />
    <glyph glyph-name="check-mark-symbol" unicode="&#xf126;" 
d="M256 444.308c139.308 0 252.308 -113 252.308 -252.308s-113 -252.308 -252.308 -252.308s-252.308 113 -252.308 252.308s113 252.308 252.308 252.308zM388.615 270.077c4.30762 6.30762 2.61523 15 -3.61523 19.2305l-23 15.6152
c-6.30762 4.23145 -15 2.61523 -19.3076 -3.69238l-112.308 -165.692l-51.6924 51.6162c-5.30762 5.38379 -14.1543 5.38379 -19.5381 0l-19.6162 -19.6162c-5.38379 -5.38379 -5.38379 -14.2305 0 -19.6152l79.3848 -79.4609
c4.46191 -4.38477 11.3848 -7.84668 17.6924 -7.84668s12.6924 4 16.6924 9.92285z" />
    <glyph glyph-name="sweet-home" unicode="&#xf104;" 
d="M256 406.5l11.5 -11l208 -208l-23 -23l-20.5 20.5v-185h-144v160h-64v-160h-144v185l-20.5 -20.5l-23 23l208 208zM256 361l-144 -144v-185h80v160h128v-160h80v185z" />
    <glyph glyph-name="printer" unicode="&#xf11c;" 
d="M112.64 427.52h286.721v-133.119h61.4395c16.8447 0 30.7197 -13.876 30.7197 -30.7207v-184.319c0 -16.8447 -13.875 -30.7207 -30.7197 -30.7207h-61.4395v-92.1592h-286.721v92.1592h-61.4395c-16.8447 0 -30.7197 13.876 -30.7197 30.7207v184.319
c0 16.8447 13.875 30.7207 30.7197 30.7207h61.4395v133.119zM133.12 407.04v-112.64h245.76v112.64h-245.76zM51.2002 273.92c-5.78613 0 -10.2402 -4.4541 -10.2402 -10.2402v-184.319c0 -5.78613 4.4541 -10.2402 10.2402 -10.2402h61.4395v92.1602h276.48h10.2402
v-92.1602h61.4395c5.78613 0 10.2402 4.4541 10.2402 10.2402v184.319c0 5.78613 -4.4541 10.2402 -10.2402 10.2402h-70.0596c-0.458008 -0.0751953 -1.20605 -0.136719 -1.66992 -0.136719c-0.464844 0 -1.21289 0.0615234 -1.66992 0.136719h-262.9
c-0.458008 -0.0751953 -1.20605 -0.136719 -1.66992 -0.136719s-1.21191 0.0615234 -1.66992 0.136719h-69.96zM419.84 243.2c11.3047 0 20.4805 -9.1748 20.4805 -20.4805c0 -11.3047 -9.17578 -20.4795 -20.4805 -20.4795s-20.4795 9.1748 -20.4795 20.4795
c0 11.3057 9.1748 20.4805 20.4795 20.4805zM133.12 140.8v-80.2998c0.0751953 -0.458008 0.136719 -1.20605 0.136719 -1.66992s-0.0615234 -1.21191 -0.136719 -1.66992v-80.2002h245.76v80.2998c-0.0751953 0.458008 -0.136719 1.20605 -0.136719 1.66992
c0 0.464844 0.0615234 1.21289 0.136719 1.66992v80.2002h-245.76zM174.08 110.08h163.84l0.144531 0.000976562c5.65332 0 10.2412 -4.58789 10.2412 -10.2412s-4.58789 -10.2412 -10.2412 -10.2412l-0.144531 0.000976562h-163.84l-0.144531 -0.000976562
c-5.65332 0 -10.2412 4.58789 -10.2412 10.2412s4.58789 10.2412 10.2412 10.2412zM174.08 69.1201h122.88l0.144531 0.000976562c5.65332 0 10.2412 -4.58789 10.2412 -10.2412s-4.58789 -10.2412 -10.2412 -10.2412
c-0.0400391 0 -0.104492 0.000976562 -0.144531 0.000976562h-122.88c-0.0400391 0 -0.104492 -0.000976562 -0.144531 -0.000976562c-5.65332 0 -10.2412 4.58789 -10.2412 10.2412s4.58789 10.2412 10.2412 10.2412zM174.08 28.1602h163.84
c0.0400391 0 0.104492 0.000976562 0.144531 0.000976562c5.65332 0 10.2412 -4.58789 10.2412 -10.2412s-4.58789 -10.2412 -10.2412 -10.2412c-0.0400391 0 -0.104492 0.000976562 -0.144531 0.000976562h-163.84
c-0.0400391 0 -0.104492 -0.000976562 -0.144531 -0.000976562c-5.65332 0 -10.2412 4.58789 -10.2412 10.2412s4.58789 10.2412 10.2412 10.2412c0.0400391 0 0.104492 -0.000976562 0.144531 -0.000976562z" />
    <glyph glyph-name="instagram-camera" unicode="&#xf12e;" 
d="M183.5 368h145c56.875 0 103.5 -46.6875 103.5 -103.5v-145c0 -56.875 -46.6875 -103.5 -103.5 -103.5h-145c-56.875 0 -103.5 46.6875 -103.5 103.5v145c0 56.875 46.6875 103.5 103.5 103.5zM183.5 336c-39.5625 0 -71.5 -31.9375 -71.5 -71.5v-145
c0 -39.5625 31.9375 -71.5 71.5 -71.5h145c39.5625 0 71.5 31.9375 71.5 71.5v145c0 39.5625 -31.9375 71.5 -71.5 71.5h-145zM350.5 301c8.0625 0 14.5 -6.4375 14.5 -14.5s-6.4375 -14.5 -14.5 -14.5s-14.5 6.4375 -14.5 14.5s6.4375 14.5 14.5 14.5zM256 288
c52.8125 0 96 -43.1875 96 -96s-43.1875 -96 -96 -96s-96 43.1875 -96 96s43.1875 96 96 96zM256 256c-35.5625 0 -64 -28.4375 -64 -64s28.4375 -64 64 -64s64 28.4375 64 64s-28.4375 64 -64 64z" />
    <glyph glyph-name="sort-right" unicode="&#xf128;" 
d="M192 42.667v298.666l192 -149.333z" />
    <glyph glyph-name="recently-viewed" unicode="&#xf10b;" 
d="M256 384c105.875 0 192 -86.125 192 -192s-86.125 -192 -192 -192s-192 86.125 -192 192h32c0 -88.5625 71.4375 -160 160 -160s160 71.4375 160 160s-71.4375 160 -160 160c-59.25 0 -110.375 -32.3125 -138 -80h58v-32h-112v112h32v-53.5
c34.4375 51.6875 93.3125 85.5 160 85.5zM240 320h32v-112h80v-32h-112v144z" />
    <glyph glyph-name="online-money-transfer" unicode="&#xf110;" 
d="M144 400h224v-208h32v-32h-288v32h32v208zM206.562 368c0.9375 -2.5625 1.4375 -5.25 1.4375 -8c0 -13.25 -10.75 -24 -24 -24c-2.75 0 -5.4375 0.5 -8 1.375v-145.375h16c0 35.1875 28.8125 64 64 64s64 -28.8125 64 -64h16v145.375
c-2.5625 -0.875 -5.25 -1.375 -8 -1.375c-13.25 0 -24 10.75 -24 24c0 2.75 0.5 5.4375 1.4375 8h-98.875zM256 328c13.25 0 24 -10.75 24 -24s-10.75 -24 -24 -24s-24 10.75 -24 24s10.75 24 24 24zM48 304h80v-32h-48v-192h352v192h-48v32h80v-256h-192v-32h80v-32h-192
v32h80v32h-192v256zM256 224c-17.875 0 -32 -14.125 -32 -32h64c0 17.875 -14.125 32 -32 32z" />
    <glyph glyph-name="facebook" unicode="&#xf12b;" 
d="M416 448c53 0 96 -43 96 -96v-320c0 -53 -43 -96 -96 -96h-320c-53 0 -96 43 -96 96v320c0 53 43 96 96 96h320zM403 172.23l6.53809 59.7695h-54.4609l0.0771484 33.5381c0 16 1.53809 24.4619 24.3838 24.4619h34.6162v59.5381h-59.5391
c-58.8457 0 -79.5381 -29.6152 -79.5381 -79.4609v-38.0771h-31.0771v-59.7695h31.0771v-177.308h80v177.308h47.9229z" />
    <glyph glyph-name="key" unicode="&#xf118;" 
d="M192 405.333c83.167 0 149.333 -66.166 149.333 -149.333c0 -19.083 -3.66602 -37.333 -10 -54l131.334 -131.333c4.25 -4.25 6.66602 -8.91699 6.66602 -15.334v-55.333c0 -12.833 -8.5 -21.333 -21.333 -21.333h-55.333c-6.41699 0 -11.084 2.41602 -15.334 6.66602
l-14.666 14.667v42.667h-42.667v42.666h-42.667l-31.333 31.334c-16.667 -6.33398 -34.917 -10 -54 -10c-83.167 0 -149.333 66.166 -149.333 149.333s66.166 149.333 149.333 149.333zM160 341.333c-29.833 0 -53.333 -23.5 -53.333 -53.333s23.5 -53.333 53.333 -53.333
s53.333 23.5 53.333 53.333s-23.5 53.333 -53.333 53.333z" />
    <glyph glyph-name="settings-2" unicode="&#xf119;" 
d="M413.833 170.667l44.834 -34.167c4.25 -4.25 4.25 -10.667 2.16602 -14.917l-42.666 -74.666c-2.16699 -4.25 -8.58398 -6.41699 -12.834 -4.25l-51.166 23.5c-10.667 -8.58398 -23.5 -15 -38.417 -21.334l-6.41699 -55.5c0 -6.41602 -4.25 -10.666 -10.666 -10.666
h-85.334c-6.41602 0 -10.666 4.25 -10.666 10.666l-6.41699 55.5c-12.75 4.25 -27.75 12.75 -38.417 21.334l-51.166 -23.5c-4.25 -2.16699 -10.667 0 -12.834 6.41602l-42.666 74.667c-4.25 6.41699 -2.08398 12.75 2.16602 14.917l44.834 32
c-2.16699 6.41602 -2.16699 14.916 -2.16699 21.333s2.16699 14.917 2.16699 21.333l-44.834 34.167c-6.41602 2.08301 -6.41602 8.5 -2.16602 14.917l42.666 74.666c2.16699 4.25 8.58398 6.41699 12.834 4.25l51.166 -21.333c10.667 8.5 23.5 14.917 38.417 21.333
l6.41699 53.334c0 6.41602 4.25 10.666 10.666 10.666h85.334c6.41602 0 10.666 -4.25 10.666 -10.666l6.41699 -55.5c12.75 -4.25 27.75 -12.75 38.417 -21.334l51.166 23.5c4.25 2.16699 10.667 0 12.834 -6.41602l42.666 -74.667
c4.25 -6.41699 2.08398 -12.75 -2.16602 -14.917l-44.834 -32c2.16699 -6.41602 2.16699 -14.916 2.16699 -21.333s-2.16699 -14.917 -2.16699 -21.333zM256 106.667c46.917 0 85.333 38.416 85.333 85.333s-38.416 85.333 -85.333 85.333s-85.333 -38.416 -85.333 -85.333
s38.416 -85.333 85.333 -85.333z" />
    <glyph glyph-name="identity-theft" unicode="&#xf120;" 
d="M337 336c10.625 0.125 19.0625 0 22.5 0c22.0625 0.125 40 -6.8125 53 -17s21.25 -23.25 27 -34.5c6.8125 -13.3125 13.75 -29.875 21.5 -42.5c3.875 -6.3125 7.5625 -11.5625 11 -14.5s5.75 -3.5 8 -3.5v-32c-11.1875 0 -21.0625 4.6875 -28.5 11s-13.0625 14 -18 22
c-9.8125 16 -16.875 34 -22.5 45c-4.625 9.0625 -10.25 17.9375 -18 24s-17.8125 10.0625 -33.5 10c-6.1875 -0.0625 -24.625 -0.375 -41.5 -1l54.5 -15.5l9.5 -3l2 -10l16 -99v-29.5l-22 9s-82.625 34.4375 -86.5 36c-7.375 3 -15.5 -0.625 -18.5 -8s0.625 -15 8 -18
c5.0625 -2.0625 9.5 -4.8125 18.5 -9.5s20.1875 -10.5625 31.5 -16.5s23.125 -11.875 32 -16.5s17.0625 -8.625 15.5 -8c5.3125 -2.125 9.5 -2.5 21.5 -2.5h80v-32h-80c-5.8125 0 -11.0625 0 -16 0.5v-16.5h-352v256h215c1.25 1.25 2.75 2.1875 4 3
c4.875 3.3125 9.75 4.5625 15 6c10.4375 2.875 22.5 4.5625 35 5.5s25.375 1.375 36 1.5zM64 288v-192h280c-8.3125 4.3125 -17.5625 9.3125 -27.5 14.5c-11.3125 5.9375 -22.625 11.875 -31.5 16.5s-17.5 8.5625 -16 8c-23.4375 9.4375 -34.9375 36.5625 -25.5 60
s36.5625 34.9375 60 25.5c4.75 -1.9375 36.5625 -15.0625 60.5 -25l-10.5 64l-100 28.5h-189.5zM160 256c26.3125 0 48 -21.6875 48 -48c0 -10.875 -3.8125 -20.9375 -10 -29c15.5625 -11.6875 26 -30.1875 26 -51h-32c0 17.875 -14.125 32 -32 32s-32 -14.125 -32 -32h-32
c0 20.8125 10.4375 39.3125 26 51c-6.1875 8.0625 -10 18.125 -10 29c0 26.3125 21.6875 48 48 48zM160 224c-9 0 -16 -7 -16 -16s7 -16 16 -16s16 7 16 16s-7 16 -16 16z" />
    <glyph glyph-name="percentage" unicode="&#xf10c;" 
d="M358.967 379.934c9.1709 -0.244141 16.6143 -7.88867 16.6143 -17.0625c0 -2.67578 -1.1416 -6.69434 -2.54785 -8.9707l-204.8 -341.334c-2.68945 -4.8584 -9.37988 -8.80176 -14.9336 -8.80176c-9.42188 0 -17.0684 7.64648 -17.0684 17.0684
c0 2.78027 1.22559 6.93164 2.73535 9.2666l204.8 341.334c2.72266 4.69434 9.33789 8.50488 14.7656 8.50488zM153.6 362.667c1.74707 -0.0283203 4.47949 -0.581055 6.10059 -1.2334c34.5381 -3.26172 62.166 -31.6895 62.166 -67.0332v-34.1338
c0 -35.3184 -27.5957 -63.7041 -62.0996 -67c-1.63672 -0.668945 -4.39941 -1.23633 -6.16699 -1.2666c-37.501 0 -68.2666 30.7656 -68.2666 68.2666v34.1338c0 37.501 30.7656 68.2666 68.2666 68.2666zM153.6 328.533c-19.0576 0 -34.1328 -15.0752 -34.1328 -34.1328
v-34.1338c0 -19.0576 15.0752 -34.1328 34.1328 -34.1328c19.0586 0 34.1338 15.0752 34.1338 34.1328v34.1338c0 19.0576 -15.0752 34.1328 -34.1338 34.1328zM358.4 192c37.501 0 68.2666 -30.7656 68.2666 -68.2666v-34.1338c0 -35.3184 -27.5967 -63.7041 -62.1006 -67
c-1.63574 -0.668945 -4.39844 -1.23633 -6.16602 -1.2666c-1.74707 0.0283203 -4.47949 0.581055 -6.10059 1.2334c-34.5381 3.26172 -62.166 31.6895 -62.166 67.0332v34.1338c0 37.501 30.7646 68.2666 68.2666 68.2666zM358.4 157.866
c-19.0586 0 -34.1338 -15.0752 -34.1338 -34.1328v-34.1338c0 -19.0576 15.0752 -34.1328 34.1338 -34.1328c19.0576 0 34.1328 15.0752 34.1328 34.1328v34.1338c0 19.0576 -15.0752 34.1328 -34.1328 34.1328z" />
    <glyph glyph-name="search" unicode="&#xf127;" 
d="M221.866 396.8c94.0547 0 170.667 -76.6123 170.667 -170.666c0 -40.9014 -14.5234 -78.4629 -38.6328 -107.9l101.899 -101.9c2.89648 -2.78027 5.24707 -8.29688 5.24707 -12.3115c0 -9.42188 -7.64648 -17.0684 -17.0684 -17.0684
c-4.01465 0 -9.53125 2.35059 -12.3115 5.24707l-101.9 101.899c-29.4375 -24.1094 -66.999 -38.6328 -107.9 -38.6328c-94.0537 0 -170.666 76.6123 -170.666 170.667c0 94.0537 76.6123 170.666 170.666 170.666zM221.866 362.667
c-75.6074 0 -136.533 -60.9258 -136.533 -136.533s60.9258 -136.534 136.533 -136.534s136.534 60.9268 136.534 136.534s-60.9268 136.533 -136.534 136.533z" />
    <glyph glyph-name="ok" unicode="&#xf114;" 
d="M256 400c114.688 0 208 -93.3125 208 -208s-93.3125 -208 -208 -208s-208 93.3125 -208 208s93.3125 208 208 208zM256 368c-97.375 0 -176 -78.625 -176 -176s78.625 -176 176 -176s176 78.625 176 176s-78.625 176 -176 176zM356.5 267.5l23 -23l-128 -128l-11.5 -11
l-11.5 11l-80 80l23 23l68.5 -68.5z" />
    <glyph glyph-name="cash-in-hand" unicode="&#xf103;" 
d="M316.5 390.5l13 -9.5l128 -96l12.5 -9.5l-9 -13l-160 -224l-9.5 -13l-13 9.5l-38 29c-22.0625 -25.1875 -51.3125 -48 -96 -48h-96.5v32h96.5c42.5625 0 66.4375 22.4375 85 49.5l1 1l1 1.5s19.125 18.625 36.5 29.5c7.375 4.625 12.5625 8.875 15.5 12.5
s4.5 6.3125 4.5 13.5c0 12.1875 -8.0625 20.5 -18.5 20.5c-15.875 0 -26.375 -8.25 -43.5 -17.5c-7.5 -4.0625 -58.5 -32 -58.5 -32l-23.5 -13v35.5l3 4.5l73 102.5h-44c-10.0625 0 -18.375 -6.875 -32.5 -19l-6 -5c-17.25 -14.4375 -85.75 -71.375 -89.5 -74.5v41.5
c22.6875 18.9375 57.4375 47.8125 69 57.5l5.5 5c15.3125 13.125 31.125 26.5 53.5 26.5h67l64 89.5zM323.5 345l-113 -158.5c11.4375 6.1875 26.0625 17.125 46.5 20.5c-2.3125 11.25 -1 22.375 5 31.5c7.375 11.375 20.375 17.5 34 17.5c10.625 0 21.625 -3.5 31.5 -11
c23.25 -17.0625 31.0625 -47.3125 18 -67.5c-5.875 -9.6875 -15.125 -15.375 -26 -17c0.125 -1.625 0.5 -3.3125 0.5 -5c0 -13.5 -4.5 -25.4375 -11.5 -34s-15.4375 -14 -23.5 -19c-7.375 -4.625 -13.8125 -10.4375 -20.5 -16.5l20 -15l141.5 197.5zM349.5 295
c5.1875 -0.3125 11.1875 -2.5 16.5 -6.5c10.5625 -8 14.8125 -20.4375 9.5 -27.5s-18.4375 -6 -29 2s-14.8125 19.9375 -9.5 27c2.6875 3.5 7.3125 5.3125 12.5 5zM296 224c-1.5 0 -5.375 -0.0625 -7 -2.5c-1.625 -2.5 -1.25 -8.3125 1.5 -14l25.5 -15
c1.1875 0.3125 2.0625 0.75 2.5 1.5v0.5h0.5c2.9375 4.5625 0.125 16.6875 -10.5 24.5c-4.3125 3.25 -8.375 5 -12.5 5z" />
    <glyph glyph-name="settings" unicode="&#xf10a;" 
d="M211 400h90l2.5 -13l9.5 -47.5c15.25 -6 29 -14.4375 41.5 -24.5l46.5 16l12.5 4l6.5 -11.5l32 -55l6.5 -11.5l-9.5 -8.5l-36 -31.5c1.3125 -8.1875 3 -16.375 3 -25s-1.6875 -16.8125 -3 -25l36 -31.5l9.5 -8.5l-6.5 -11.5l-32 -55l-6.5 -11.5l-12.5 4l-46.5 16
c-12.5 -10.0625 -26.25 -18.5 -41.5 -24.5l-9.5 -47.5l-2.5 -13h-90l-2.5 13l-9.5 47.5c-15.25 6 -29 14.4375 -41.5 24.5l-46.5 -16l-12.5 -4l-6.5 11.5l-32 55l-6.5 11.5l9.5 8.5l36 31.5c-1.3125 8.1875 -3 16.375 -3 25s1.6875 16.8125 3 25l-36 31.5l-9.5 8.5l6.5 11.5
l32 55l6.5 11.5l12.5 -4l46.5 -16c12.5 10.0625 26.25 18.5 41.5 24.5l9.5 47.5zM237 368l-8 -41.5l-2 -9.5l-9 -3c-18.1875 -5.6875 -34.6875 -15.3125 -48.5 -28l-7 -6.5l-9 3l-40.5 14l-19 -32.5l32 -28.5l7.5 -6l-2.5 -9.5c-2.0625 -9.125 -3 -18.4375 -3 -28
s0.9375 -18.875 3 -28l2.5 -9.5l-7.5 -6l-32 -28.5l19 -32.5l40.5 14l9 3l7 -6.5c13.8125 -12.6875 30.3125 -22.3125 48.5 -28l9 -3l2 -9.5l8 -41.5h38l8 41.5l2 9.5l9 3c18.1875 5.6875 34.6875 15.3125 48.5 28l7 6.5l9 -3l40.5 -14l19 32.5l-32 28.5l-7 6l2 9.5
c2.0625 9.125 3 18.4375 3 28s-0.9375 18.875 -3 28l-2.5 9.5l7.5 6l32 28.5l-19 32.5l-40.5 -14l-9 -3l-7 6.5c-13.8125 12.6875 -30.3125 22.3125 -48.5 28l-9 3l-2 9.5l-8 41.5h-38zM256 272c44 0 80 -36 80 -80s-36 -80 -80 -80s-80 36 -80 80s36 80 80 80zM256 240
c-26.6875 0 -48 -21.3125 -48 -48s21.3125 -48 48 -48s48 21.3125 48 48s-21.3125 48 -48 48z" />
    <glyph glyph-name="lock-outline" unicode="&#xf116;" 
d="M240 400c61.5 0 112 -50.5 112 -112v-48h48v-256h-320v256h240v48c0 44.0625 -35.9375 80 -80 80c-34.625 0 -64.375 -22.9375 -76.5 -54l-29.5 12c16.625 42.5625 57.4375 74 106 74zM112 208v-192h256v192h-256z" />
    <glyph glyph-name="youtube" unicode="&#xf12d;" 
d="M124.308 447.385h29.5381l19.0771 -75.6924h1.84668l18.4609 75.6924h29.5391l-33.8467 -111.385v-78.7695h-29.5381v75.0771zM260.308 401.23c10.8467 0 19.6152 -3.61523 26.4619 -10.4609c6.92285 -6.76953 10.4609 -15.1543 10.4609 -25.8467v-72.6152
c0 -12 -3.07617 -21.4619 -9.8457 -28.3076s-16.4619 -10.4619 -28.3076 -10.4619c-11.4619 0 -20.1543 3.38477 -27.0771 10.4619c-6.8457 7 -10.4619 17 -10.4619 28.9229v72.6152c0 10.8467 3.46191 19.4619 10.4619 25.8467c7 6.46094 16.4619 9.8457 28.3076 9.8457z
M319.385 397.538h26.4609v-107.692c0 -3.23047 0.0771484 -5.92285 1.23145 -7.38379c1.07715 -1.46191 3.15332 -1.84668 5.53809 -1.84668c1.92285 0 4.46191 1.07715 7.38477 3.07715c2.92285 1.92285 5.53809 4.38477 8 7.38477v106.461h25.8457v-140.308h-25.8457
v15.3848c-4.76953 -5.69238 -10.1543 -9.92285 -15.3848 -12.9229c-5.15332 -2.92285 -9.92285 -4.30762 -14.7695 -4.30762c-6 0 -10.4609 2 -13.5381 6.15332c-3.07715 4.1543 -4.92285 10.0771 -4.92285 18.4619v117.538zM259.077 376.615
c-3.1543 0 -5.38477 -0.615234 -7.38477 -2.46094c-2 -1.92383 -3.07715 -4.38477 -3.07715 -7.38477v-76.9238c0 -3.8457 0.539062 -6.53809 2.46191 -8.61523c1.8457 -2.07617 4.53809 -3.07617 8 -3.07617c3.53809 0 6.53809 0.922852 8.61523 3.07617
c2.07715 2.07715 3.07715 4.84668 3.07715 8.61523v76.9238c0 3 -0.923828 5.46094 -3.07715 7.38477c-2.07715 1.8457 -5.1543 2.46094 -8.61523 2.46094zM256 228.308c51.1543 0.0771484 101.23 -0.384766 150.154 -2.46191c34.2305 0 62.1533 -27.6152 62.1533 -61.5381
c2.07715 -26.8457 3.23047 -53.7695 3.07715 -80.6152c0.0771484 -26.8467 -1 -53.7695 -3.07715 -80.6152c0 -33.9229 -27.9229 -61.5391 -62.1533 -61.5391c-48.9238 -2 -99 -2.61523 -150.154 -2.46094c-51.0771 -0.0771484 -101.154 0.460938 -150.154 2.46094
c-34.2305 0 -62.1533 27.6162 -62.1533 61.5391c-2.07715 26.8457 -3.1543 53.7686 -3.07715 80.6152c-0.0771484 26.8457 1 53.7695 3.07715 80.6152c0 33.9229 27.9229 61.5381 62.1533 61.5381c49 2.07715 99.0771 2.53906 150.154 2.46191zM73.8457 184.615
c-1.61523 0 -2.46094 -1.46094 -2.46094 -3.07715v-27.6924c0 -1.61523 0.845703 -3.07617 2.46094 -3.07617h27.6924v-159.385c0 -1.61523 1.46191 -3.07715 3.07715 -3.07715h29.5391c1.61523 0 2.46094 1.46191 2.46094 3.07715v159.385h27.6924
c1.61523 0 3.07715 1.46094 3.07715 3.07617v27.6924c0 1.61621 -1.46191 3.07715 -3.07715 3.07715h-90.4619zM264 184.615c-1.61523 0 -3.07715 -1.46094 -3.07715 -3.07715v-190.153c0 -1.61523 1.46191 -3.07715 3.07715 -3.07715h26.4619
c1.61523 0 3.07617 1.46191 3.07617 3.07715v3.07715c2.1543 -1.92383 4.38477 -3.07715 6.76953 -4.30762c4.46191 -2.23145 9.30762 -3.69238 14.7695 -3.69238c8.61523 0 15.6152 3.23047 20.3076 9.23047c4.53809 5.76953 6.76953 14 6.76953 24.6152v78.1543
c0 12 -2.69238 21.1533 -7.38477 27.6924c-4.92383 6.76855 -11.6924 10.4609 -20.9238 10.4609c-4.53809 0 -9.07617 -1.23047 -13.5381 -3.69238c-2.30762 -1.30762 -4.61523 -2.92285 -6.76953 -4.92285v53.5381c0 1.61621 -1.46094 3.07715 -3.07617 3.07715h-26.4619z
M398.154 138.462c-12.4619 0 -22.8467 -4.69238 -30.7695 -12.9238c-7.92285 -8.23047 -11.6924 -18.4609 -11.6924 -31.3838v-63.3848c0 -14.2314 3.92285 -25.6152 11.0771 -33.8467c7.23047 -8.38477 17 -12.3076 29.5381 -12.3076
c13.8467 0 24.3848 3.84668 31.3848 11.6924c7 7.76953 11.0771 19.3076 11.0771 34.4619v10.4609c0 1.61523 -1.46191 3.07715 -3.07715 3.07715h-27.0771c-1.61523 0 -3.07715 -1.46191 -3.07715 -3.07715v-9.8457c0 -10.2305 -1.30762 -13.3076 -1.8457 -14.1543
c-1.1543 -1.53809 -3.46191 -2.46094 -6.76953 -2.46094c-4.07715 0 -5.38477 1.8457 -6.15332 3.07617c-0.923828 1.53906 -1.84668 4.92383 -1.84668 13.5391v24h46.7695c1.61523 0 3.07715 0.845703 3.07715 2.46094v36.3086c0 14 -3.53906 24.9229 -10.4619 32.6152
s-17.3848 11.6924 -30.1533 11.6924zM164.308 134.77c-1.61523 0 -3.07715 -1.46191 -3.07715 -3.07715v-117.538c0 -8.92383 1.46191 -15.6162 4.92383 -20.3086c3.61523 -5 9 -7.38379 16 -7.38379c5.53809 0 10.9229 1.69238 16.6152 4.92285
c3.61523 2.07715 7 4.61523 10.4609 8v-8c0 -1.61523 1.46191 -3.07715 3.07715 -3.07715h26.4619c1.61523 0 2.46094 1.46191 2.46094 3.07715v140.308c0 1.61523 -0.845703 3.07715 -2.46094 3.07715h-26.4619c-1.61523 0 -3.07715 -1.46191 -3.07715 -3.07715v-105.847
c-2 -2.38379 -4.23047 -4.46094 -6.76855 -6.15332c-3.07715 -2.1543 -4.76953 -2.46191 -5.53906 -2.46191c-2.23047 0 -2.92285 1 -3.07715 1.23145c-0.383789 0.538086 -0.615234 2 -0.615234 5.53809v107.692c0 1.61523 -1.46094 3.07715 -3.07617 3.07715h-25.8467z
M300.308 108.308c3 0.538086 5.30762 -0.538086 6.76953 -2.46191c1.46094 -1.92285 1.8457 -5.23047 1.8457 -9.23047v-72.6152c0 -4.69238 -0.460938 -7 -1.23047 -8c-0.307617 -0.461914 -1.61523 -1.8457 -4.92285 -1.8457
c-1.76953 0 -3.30762 0.460938 -4.92383 1.23047c-1.46094 0.692383 -2.76855 2.07715 -4.30762 3.69238v84.9229c1.23145 1.30762 2.46191 2.46191 3.69238 3.07715c1.07715 0.538086 2.07715 1.07715 3.07715 1.23047zM397.538 107.692
c3 0 4.92383 -0.769531 6.1543 -2.46191c1 -1.46094 1.8457 -4.61523 1.8457 -11.0762v-11.0771h-16.6152v11.0771c0 6.53809 0.922852 9.76855 1.84668 11.0762c1.30762 1.76953 3.61523 2.46191 6.76855 2.46191z" />
    <glyph glyph-name="money-2" unicode="&#xf113;" 
d="M32 368h448v-256h-448v256zM94.625 336c0.875 -2.5625 1.375 -5.25 1.375 -8c0 -13.25 -10.75 -24 -24 -24c-2.75 0 -5.4375 0.5 -8 1.375v-130.812c2.5625 0.9375 5.25 1.4375 8 1.4375c13.25 0 24 -10.75 24 -24c0 -2.75 -0.5 -5.4375 -1.375 -8h322.812
c-0.9375 2.5625 -1.4375 5.25 -1.4375 8c0 13.25 10.75 24 24 24c2.75 0 5.4375 -0.5 8 -1.4375v130.812c-2.5625 -0.875 -5.25 -1.375 -8 -1.375c-13.25 0 -24 10.75 -24 24c0 2.75 0.5 5.4375 1.4375 8h-322.812zM256 304c35.375 0 64 -28.625 64 -64v-16h-3.25
c-7.1875 -27.375 -31.0625 -48 -60.75 -48s-53.5625 20.625 -60.75 48h-3.25v16c0 35.375 28.625 64 64 64zM256 272c-19.0625 0 -32 -12.9375 -32 -32s12.9375 -32 32 -32s32 12.9375 32 32s-12.9375 32 -32 32zM144 264c13.25 0 24 -10.75 24 -24s-10.75 -24 -24 -24
s-24 10.75 -24 24s10.75 24 24 24zM368 264c13.25 0 24 -10.75 24 -24s-10.75 -24 -24 -24s-24 10.75 -24 24s10.75 24 24 24zM32 96h16c0.1875 0 188.438 0.1875 352.812 -33.75c2.875 10.4375 12.375 17.75 23.1875 17.75c2.75 0 5.4375 -0.5 8 -1.4375v17.4375h32v-80.75
l-20.0625 5.25c-166.5 44.125 -395.875 43.5 -395.875 43.5h-16.0625v32z" />
    <glyph glyph-name="money-bag" unicode="&#xf10f;" 
d="M256 400c48 0 86.5 -17.5 86.5 -17.5l15.5 -6.5l-7.5 -15l-21.5 -42.5c74.1875 -8.375 115 -51.5 115 -51.5l-24 -22s-15.375 17.375 -46.5 30c36.125 -32 74.5 -81.25 74.5 -147c0 -47.25 -15.3125 -83.125 -48.5 -103s-79.6875 -25 -143.5 -25
s-110.312 5.125 -143.5 25s-48.5 55.75 -48.5 103c0 100.75 88.875 162.375 123 182.5l-25.5 50.5l-7.5 15l15.5 6.5s38.5 17.5 86.5 17.5zM256 368c-25.1875 0 -44.25 -4.6875 -57.5 -9l19.5 -39h76l19.5 39c-13.25 4.3125 -32.3125 9 -57.5 9zM213 288
c-3.9375 -2.0625 -117 -61.6875 -117 -160c0 -41.125 9.5625 -61.4375 33 -75.5s65.1875 -20.5 127 -20.5s103.562 6.4375 127 20.5s33 34.375 33 75.5c0 98.3125 -113.062 157.938 -117 160h-86zM240 256h32v-19c18.5 -6.6875 32 -24.3125 32 -45h-32
c0 9.0625 -6.9375 16 -16 16c-8.875 0 -16 -7.375 -16 -16c0 -2.6875 0.625 -3.75 4.5 -7s10.5 -7 18.5 -11s16.875 -8.25 25 -15s16 -17.6875 16 -31c0 -20.5 -13.4375 -38.25 -32 -45v-19h-32v19c-18.5 6.6875 -32 24.3125 -32 45h32c0 -9.0625 6.9375 -16 16 -16
c8.75 0 16 7.625 16 16c0 2.4375 -0.125 3.3125 -4 6.5s-11 6.9375 -19 11s-17.375 8.1875 -25.5 15s-15.5 18.1875 -15.5 31.5c0 20.5625 13.5 38.25 32 45v19z" />
    <glyph glyph-name="paper" unicode="&#xf124;" 
d="M114.462 448h1.8457h1.84668h334.769c10.8467 0 19.6924 -8.8457 19.6924 -19.6924v-393.846c0 -53.2314 -43.0771 -97.0771 -96 -98.4619h-0.615234h-1.8457h-275.692c-18.6162 0 -34.5391 11.3848 -44.3076 25.8457
c-9.76953 14.4619 -14.7695 32.6924 -14.7695 52.9238c0 20.2305 5 38.4609 14.7695 52.9229c9.76855 14.4619 25.6914 25.8457 44.3076 25.8457h275.692c10.7686 -0.15332 19.3838 -8.92285 19.3838 -19.6924c0 -10.7686 -8.61523 -19.5381 -19.3838 -19.6914
c-3.07715 0 -7.1543 -1.30859 -11.6924 -8c-4.53906 -6.69238 -8 -18.1543 -8 -31.3848c0 -13.2314 3.46094 -24.6924 8 -31.3848c4.53809 -6.69238 8.61523 -8 11.6924 -8h2.46094c31.3848 1.30762 56.6152 27.3076 56.6152 59.0771v374.153h-295.385v-295.385h-39.3838
v315.077c-0.154297 9.61523 6.61523 17.9229 16 19.6924zM98.4619 54.1543c-3.07715 0 -7.1543 -1.30859 -11.6924 -8c-4.53906 -6.69238 -8 -18.1543 -8 -31.3848c0 -13.2314 3.46094 -24.6924 8 -31.3848c4.53809 -6.69238 8.61523 -8 11.6924 -8h227.692
c-5.46191 12.1533 -11.0771 24.3076 -11.0771 39.3848c0 15.0762 5.61523 27.2305 11.0771 39.3848h-227.692z" />
    <glyph glyph-name="pdf" unicode="&#xf11b;" 
d="M71.6797 427.52h227.16l141.48 -137.319v-333.72h-368.641v471.039zM92.1602 407.04v-430.08h327.68v296.96h-133.12v133.12h-194.56zM307.2 390.88v-96.4795h99.3994zM243.4 244.48c4.59961 0 9.51953 -1.68066 13 -4.7207
c3.47949 -3.04004 5.47949 -7 6.67969 -10.9199c2.36035 -7.83984 2.08008 -16.3994 0.759766 -26.2002c-0.959961 -7.08008 -5.2002 -16.4795 -7.35938 -24.5596c0.519531 -0.919922 0.439453 -1.56055 0.959961 -2.48047
c8.87988 -15.1191 20.8398 -30.3193 33.5996 -41.3193c0.839844 -0.720703 1.63965 -1 2.47949 -1.64062c6.28027 1.16016 13.8408 4.16016 19.4805 4.76074c10.6797 1.08008 19.96 1.23926 28.1201 -0.959961c4.12012 -1.12012 8.12012 -2.88086 11.5195 -6.2002
c3.36035 -3.32031 5.48047 -8.48047 5.48047 -13.3203c0 -5.95996 -3.60059 -13.7598 -9.60059 -17c-5.95996 -3.24023 -12.0791 -3.59961 -20 -3.59961c-14 0 -26.7998 6.31934 -38.8398 14.4395c-14.3994 -3.12012 -28.1201 -5.35938 -43.5195 -10.6797
c-11.4004 -3.91992 -18.5205 -8.52051 -28.5605 -12.96c-3.11914 -5 -5.63965 -11.9199 -8.7998 -16.2002c-6.28027 -8.43945 -12.5195 -15.3604 -19.5195 -20.0801s-16.6807 -7.47949 -25.0801 -3.04004c-3.95996 2.04004 -7.7998 5.2002 -9.64062 10.04
c-1.83984 4.83984 -0.879883 10.2002 0.959961 13.96c3.76074 7.56055 10.1602 12.3203 18.2402 17.6406c7.2002 4.71973 19.5205 8.7998 29.2803 13.3594c7.47949 12.6807 15.2803 24.7598 21.6396 40c5 11.96 6.60059 21.7197 9.91992 32.9199
c-6.67969 13.1602 -11.8398 26 -13.1992 37.3604c-0.880859 7.2002 -0.640625 14.1201 2.87988 20.5596c3.47949 6.48047 11.4395 10.8408 19.1201 10.8408zM242.56 224.08c-0.119141 0 -0.239258 -0.0400391 -0.319336 -0.240234
c-0.320312 -0.519531 -1.08008 -3.55957 -0.480469 -8.32031c0.120117 -1.0791 1.52051 -3.31934 1.75977 -4.51953c0.200195 4.71973 0.520508 10.04 -0.0390625 11.9199c-0.320312 1 -0.400391 0.959961 -0.44043 1.04004
c-0.160156 0.0400391 -0.360352 0.120117 -0.480469 0.120117zM248.76 152.24c-2.2002 -6.08008 -2.63965 -11.2402 -5.2002 -17.3604c-2.7998 -6.71973 -6.67969 -11.5596 -9.7998 -18.0801c2.2002 0.799805 3.48047 1.87988 5.7207 2.64062
c10.5596 3.63965 19.96 4.63965 30.4395 7.43945c-7.83984 7.7998 -14.8398 16.2803 -21.1602 25.3604z" />
    <glyph glyph-name="order-history" unicode="&#xf106;" 
d="M144 368h288v-160h-32v128h-224v-192h-32v224zM208 272h32v-32h-32v32zM272 272h96v-32h-96v32zM208 208h32v-32h-32v32zM272 208h24v-32h-24v32zM320 192h192v-32h-16v-32c0 -25.625 -12.8125 -49.625 -32 -64c19.1875 -14.375 32 -38.375 32 -64v-32h16v-32h-192v32h16
v32c0 25.625 12.8125 49.625 32 64c-19.1875 14.375 -32 38.375 -32 64v32h-16v32zM368 160v-32c0 -27.1875 20.8125 -48 48 -48s48 20.8125 48 48v32h-96zM80 128h232c0 -10.9375 1.875 -21.75 5.25 -32h-205.25v-16c0 -17.625 14.375 -32 32 -32h180.062
c-5.25 -10.0625 -8.9375 -20.8125 -10.75 -32h-169.312c-35.3125 0 -64 28.6875 -64 64v48zM384 128h64s0 -32 -32 -32s-32 32 -32 32zM416 48c-27.1875 0 -48 -20.8125 -48 -48v-32h16c0 17.625 14.375 32 32 32s32 -14.375 32 -32h16v32c0 27.1875 -20.8125 48 -48 48z
" />
  </font>
</defs>
</svg>
